<?xml version="1.0" encoding="UTF-8"?>
<svg id="Camada_1" xmlns="http://www.w3.org/2000/svg" version="1.1" viewBox="0 0 1080 1080">
  <!-- Generator: Adobe Illustrator 29.0.0, SVG Export Plug-In . SVG Version: 2.1.0 Build 186)  -->
  <defs>
    <style>
      .st0 {
        fill: #f4f3f4;
      }

      .st1 {
        fill: #e5823d;
      }

      .st2 {
        fill: #1f4454;
      }
    </style>
  </defs>
  <rect class="st0" x="-.2" y=".4" width="1080.2" height="1080.2"/>
  <g>
    <path class="st1" d="M701.2,424.8c.4-21.5,30.6-42.5,53.7-23.3,3.6,3,5.4,8.8,7.3,10.6s6.1.2,8,3.2c1.6,2.4,0,4.2.4,7,.7,3.9,4.7,6.9,5.1,11.6,1.1,11.8-12.1,10.2-13,20.4-1.1,12.7,10.8,15.6,19.1,21.8,26.8,20.1,26.9,39.9,19.2,70.7-19.5,77.3-69.1,119.7-149.3,125.5-49.7-1.9-101.2,2.4-150.7,0-3.7-.2-7.4-1.4-11.2-.9,5.6-13.4,21.7-10.9,32.4-15.4,5.6-2.4,11.6-9.4,17.7-8.6s4.8,2.3,7.1,2.9c18.5,5.2,42.9-4.9,62.3-7.2,16.5-1.9,32.1,1.1,47.7-5.5,9.7-4.2,46.1-25.5,52.4-32.5,5.5-6.1,9.3-15.1,15.3-20.9s20.1-10.6,27.2-19.9c16.5-22-8-50.6-5.8-80.8,1.3-17.7-18.7-21.4-30.6-28.8-7.1-4.4-14.7-11.6-14.3-29.9Z"/>
    <path class="st1" d="M698.7,672.3l44.1-20.4c26.9-11.2,55.5-12.4,84.1-7.9-1-2-4.4-2.5-6.5-3.1-18.4-5.6-38.6-5.7-57.6-6.1,12.1-11.5,20.9-25.3,28.8-39.9,24.3,7.2,49.8,16.5,70.2,32.1,10.1,7.8,22.2,18.9,14.6,32.8s-16.9,12.6-24.9,12.6h-152.7Z"/>
    <path class="st1" d="M800.3,482.3l-19.9-14.7c2.9-11.5,6.8-21.9,5.7-34s-12.7-32-21.7-43.3c-5-6.4-21.9-25.4-29.5-26.3s-24-1-22.8-6.1,3.2-2.6,3.2-2.6c1.2-4.6-18.1-6.3-21.1-8.7s-1.1-2.1-.5-2.6c.8-.7,10.3-1,12.1-.9,50.1,1.7,123,76.9,94.4,139.2Z"/>
  </g>
  <g>
    <path class="st2" d="M261.1,444l-.4,10.7h-57.3c.7-14.7,1-30.9,1-48.7s-.3-31.3-1-44h53.8l-.6,10.6c-13-.6-26.9-.9-41.5-.9.3,7.4.4,17.3.4,29.8,12.6,0,23.9-.3,33.7-.9v10.6c-10.5-.4-21.8-.6-33.7-.6,0,12.2.2,23.6.6,34.3,15.7,0,30.7-.4,45-1.1Z"/>
    <path class="st2" d="M330.5,435.5c0,13.8-8.8,20.8-26.5,20.8s-15.1-.8-21.9-2.3l2.2-10.5c6.2,2.4,12.9,3.6,20.1,3.6,10.3,0,15.5-2.9,15.5-8.8s-1.2-5.1-3.4-6.8c-2.3-1.7-6.1-3.6-11.4-5.7-6.7-2.7-11.6-5.2-14.7-7.7-4.5-3.7-6.7-8.1-6.7-13.2s2-10,6.1-13.9c4.1-3.9,10.3-5.8,18.6-5.8s14.7.7,19.6,2.1l-2.2,10.2c-5.1-2-11.1-3.1-17.8-3.1s-13.7,2.6-13.7,7.9,1,4.8,3.1,6.4c2,1.6,6,3.6,12,5.9,6.4,2.5,11.1,5,14.2,7.4,4.6,3.7,6.9,8.2,6.9,13.4Z"/>
    <path class="st2" d="M421.1,418.2c0,10.2-2.9,19.2-8.8,26.9-5.9,7.7-14,11.6-24.4,11.6s-14.5-1.6-17.2-4.7h-.7c0,13.2.1,24.9.4,35.3h-13.4c1.1-12.6,1.6-28.2,1.6-46.7s-1.2-40.5-3.6-53.1l12.5-1.8,1.1,7h.7c4.6-5.4,12-8,22.3-8s16.2,3.3,21.5,9.9c5.3,6.6,7.9,14.5,7.9,23.6ZM408.5,419.9c0-7-1.8-13-5.5-18-3.7-5-8.9-7.5-15.6-7.5s-14.7,2.6-18.4,7.8c.8,15.9,1.1,29.6,1.1,41,3.8,3.2,8.8,4.8,15,4.8s13.7-2.7,17.5-8.3c3.9-5.5,5.8-12.1,5.8-19.8Z"/>
    <path class="st2" d="M501.2,454.7l-11.2.4c-.6-2.3-.9-4.5-.9-6.6h-.7c-5.8,5.3-13.8,8-23.8,8s-10.1-1.6-14.1-4.8c-3.9-3.2-5.9-7.8-5.9-13.7s3.1-13.2,9.2-17.6c6.2-4.4,17.6-6.8,34.4-7,.1-1.1.2-2.4.2-3.9,0-5.8-1.6-9.7-4.7-11.7-3.1-1.9-7.8-2.9-14.1-2.9s-14.8.9-22,2.8l1.2-9.8c7.1-2,15.3-3.1,24.5-3.1s15,1.7,19.6,5.2c4.6,3.5,6.9,9.4,6.9,17.8s-.1,6.3-.3,12.1c-.2,5.9-.3,9.8-.3,11.7,0,8.6.6,16.3,1.9,23ZM488.6,440.9c-.2-7.2-.4-13.7-.4-19.4-8.9,0-15.7.7-20.3,2-7.8,2.4-11.7,6.9-11.7,13.6s4.6,9.7,13.7,9.7,14.1-1.9,18.7-5.8Z"/>
    <path class="st2" d="M581.1,443.8l-.7,9.5c-3.8,2.2-9,3.3-15.4,3.3s-3.6,0-5.3-.3l-.7,5.5c9.3,2.2,13.9,6.8,13.9,13.7,0,10.5-5.7,15.8-17.1,15.8l-1-6.5c2.2,0,4-.8,5.4-2.3,1.4-1.5,2.1-3.3,2.1-5.4,0-5.4-3.6-8.7-10.8-10.1l2.3-11.5c-7.1-1.6-13.4-5.2-18.7-10.8-5.4-5.6-8.1-13.2-8.1-22.8s3.4-18.6,10.1-26c6.7-7.4,15.8-11.1,27.3-11.1s10.2.6,13.8,1.7l-1.9,11.2c-5-1.8-10-2.8-15.2-2.8s-12.2,2.4-16.1,7.1c-4,4.7-5.9,10.6-5.9,17.6s2.4,14.1,7.1,19.2c4.7,5.1,11.5,7.7,20.1,7.7s8.5-.9,14.8-2.6Z"/>
    <path class="st2" d="M670.4,418.9c0,12.1-3.5,21.6-10.5,28.4-7,6.8-15.2,10.2-24.6,10.2s-16.4-3-22.7-9c-6.3-6-9.5-14.5-9.5-25.5s3.5-21.8,10.5-28.7c7-6.9,15.2-10.3,24.6-10.3s16.4,3,22.7,9.1c6.3,6.1,9.5,14.7,9.5,25.7ZM658.1,421.4c0-7.4-1.9-14-5.6-19.7-3.7-5.8-9-8.6-15.9-8.6s-12.1,2.7-15.8,8.2c-3.7,5.5-5.5,11.8-5.5,19s1.9,14,5.6,19.8c3.7,5.7,9,8.6,16,8.6s12.1-2.7,15.7-8.2c3.7-5.5,5.5-11.8,5.5-19Z"/>
  </g>
  <g>
    <path class="st2" d="M325.6,496.3c0,5.3-8.1,26.2-24.3,62.6-16.2,36.4-24.3,57.3-24.3,62.8h-12.5c0-4.9-7.7-25.7-23-62.3-15.3-36.6-23-57.6-23-63.1h18.3c0,5,5.8,22.8,17.5,53.5,11.7,30.6,17.5,48.2,17.5,52.6h1c0-5,5.9-22.5,17.7-52.4,11.8-29.9,17.7-47.8,17.7-53.7h17.3Z"/>
    <path class="st2" d="M386.4,621.6h-17.4c.9-12.8,1.3-27.5,1.3-44s-1.1-34.1-3.4-46.7l19.3-2.6c-.8,13.4-1.2,29.8-1.2,49.3s.4,30.1,1.3,44ZM390.4,501.3c0,3.3-1.1,6.1-3.2,8.5-2.1,2.4-5.1,3.6-9,3.6s-5.8-1-7.7-3.1c-1.8-2.1-2.7-4.6-2.7-7.6s1.1-6,3.3-8.4c2.2-2.4,5.2-3.6,9-3.6s5.6,1,7.5,3.1c1.8,2.1,2.7,4.5,2.7,7.4Z"/>
    <path class="st2" d="M519.3,530.2c0,3.1-6.5,18.3-19.5,45.5-13,27.2-19.5,42.5-19.5,46h-12.9c0-4.5-5.7-20.2-17.2-47.1-11.5-26.9-17.2-41.7-17.2-44.3h18.7c0,3.1,4.2,15.3,12.5,36.7,8.3,21.4,12.5,33.6,12.5,36.7h.9c0-3,4-14.7,11.9-35.3,7.9-20.6,11.9-33.3,11.9-38h17.9Z"/>
    <path class="st2" d="M638.1,621.6l-15.1.6c-.8-3.1-1.2-6.1-1.2-9h-1c-7.9,7.2-18.6,10.8-32.3,10.8s-13.7-2.2-19.1-6.5c-5.3-4.3-8-10.5-8-18.5s4.2-17.8,12.5-23.8c8.3-6,23.8-9.2,46.5-9.5.2-1.5.3-3.3.3-5.3,0-7.9-2.1-13.2-6.3-15.8-4.2-2.6-10.6-3.9-19.1-3.9s-20,1.3-29.7,3.8l1.6-13.3c9.6-2.8,20.7-4.1,33.2-4.1s20.2,2.4,26.5,7.1c6.2,4.7,9.3,12.8,9.3,24.1s-.1,8.5-.4,16.4c-.3,7.9-.4,13.2-.4,15.8,0,11.7.9,22.1,2.6,31.2ZM621,603c-.3-9.8-.5-18.5-.5-26.3-12.1,0-21.2.9-27.5,2.7-10.5,3.2-15.8,9.3-15.8,18.4s6.2,13.1,18.5,13.1,19-2.6,25.3-7.9Z"/>
  </g>
  <g>
    <path class="st2" d="M219.4,722.2c0,5.3-3.7,8-11.1,8s-5.1-.3-7.2-.9l.8-3.4c2.4.8,4.7,1.2,6.9,1.2,4.9,0,7.3-1.4,7.3-4.1s-.6-2.6-1.9-3.6c-.8-.7-2.5-1.5-5-2.6-2.6-1.2-4.4-2.2-5.5-3.2-1.4-1.3-2.2-3-2.2-5.1s.7-3.8,2.2-5.2c1.6-1.5,4-2.2,7-2.2s5.7.2,7,.7l-.5,3.4c-2.2-.7-4.5-1-6.9-1-3.7,0-5.5,1.2-5.5,3.7s.5,2.2,1.6,3c.7.5,2.2,1.3,4.6,2.3,2.7,1.2,4.6,2.3,5.8,3.3,1.8,1.6,2.7,3.5,2.7,5.8Z"/>
    <path class="st2" d="M247.1,729.4h-3.4c-.2-.6-.3-1.2-.3-1.9h-.2c-1.8,1.6-4.2,2.4-7.2,2.4s-3.1-.5-4.3-1.5c-1.2-1-1.8-2.3-1.8-4.1s.9-4,2.8-5.3c1.9-1.3,5.3-2,10.4-2.1,0-.3,0-.7,0-1.2,0-1.8-.5-2.9-1.4-3.5-.9-.6-2.4-.9-4.3-.9s-4.5.3-6.6.8l.4-3c2.1-.6,4.6-.9,7.4-.9s4.5.5,5.9,1.6c1.4,1.1,2.1,2.8,2.1,5.4s0,1.9,0,3.7,0,2.9,0,3.5c0,2.6.2,4.9.6,7ZM243.3,725.3c0-2.2-.1-4.1-.1-5.9-2.7,0-4.7.2-6.1.6-2.4.7-3.5,2.1-3.5,4.1s1.4,2.9,4.1,2.9,4.2-.6,5.7-1.8Z"/>
    <path class="st2" d="M277.2,729.4h-3.3c-.2-.7-.3-1.3-.3-1.8h-.2c-1.9,1.6-4.2,2.4-6.9,2.4s-4.3-.6-5.4-1.8-1.7-3.6-1.7-7.2,0-1.3,0-2.3,0-1.7,0-2.1c0-2.1-.1-4.6-.4-7.4l4-.2c-.2,2.8-.3,5.1-.3,7.1,0,4.5.3,7.5.9,8.8s1.9,2.1,3.9,2.1,4.2-.6,5.7-1.7c0-8,0-13.3-.2-16.1l3.9-.2c-.1,2.7-.2,6.4-.2,11.2s.2,6.1.5,9.3ZM275.1,699.1c0,.2-1,1.3-3,3.4s-3,3.3-3,3.5h-2.6c0-.2.6-1.4,1.9-3.5s1.9-3.3,1.9-3.4h4.6Z"/>
    <path class="st2" d="M307.8,729.4h-3.2c-.1-.5-.2-1.2-.2-1.8h-.2c-1.5,1.6-3.7,2.4-6.7,2.4s-4.9-1-6.5-3-2.4-4.4-2.4-7.2.9-5.9,2.7-8.2,4.3-3.4,7.6-3.4,4,.5,5,1.4h.2c0-3.6-.1-7-.3-10.5l4.1-.2c-.3,3.6-.4,8.4-.4,14.3s.2,11.3.5,16.1ZM304.4,725.2c0-4.5-.1-8.7-.4-12.9-1.2-1-2.6-1.4-4.3-1.4s-4.2.8-5.4,2.4-1.8,3.6-1.8,6.1.6,4,1.7,5.5,2.7,2.2,4.7,2.2,4.4-.6,5.5-1.9Z"/>
    <path class="st2" d="M337.7,716.8c0,.6,0,1.4,0,2.5l-14.8.3c.1,2.1,1,3.8,2.4,5.3,1.5,1.4,3.4,2.1,5.9,2.1s4.2-.3,6.1-.8l-.4,3c-1.4.6-3.4.8-6.1.8s-6.6-1-8.5-3.1-2.9-4.5-2.9-7.4.9-5.8,2.7-8.1,4.2-3.4,7.2-3.4,4.9.8,6.3,2.4,2.2,3.7,2.2,6.3ZM334.1,716.9c0-4-1.7-6-5-6s-5.5,2.1-6.1,6.3l11.1-.2Z"/>
    <path class="st2" d="M354.8,727c0,1.9-.5,3.7-1.5,5.4-1,1.7-2.5,3.4-4.5,5.2l-1.3-1.4c2.2-2.4,3.3-4.7,3.3-6.7-1.2-.5-1.8-1.4-1.8-2.7s.3-1.6.8-2.2,1.3-.9,2.3-.9,1.5.3,2,1,.8,1.5.8,2.4Z"/>
    <path class="st2" d="M410.1,717c0-2.3-.4-3.8-1.2-4.5s-2.1-1.1-3.9-1.1-3.1.8-4.7,2.3c0,1.7,0,3.5,0,5.1,0,2.4,0,6,.1,10.7h-3.9c.3-4.1.5-8.2.5-12.4s-.4-3.8-1.2-4.5-2.1-1.1-3.8-1.1-3.5.8-5,2.3c0,4.5,0,9.8,0,15.8h-3.9c.3-4.9.4-8.4.4-10.6,0-3.3-.3-6.6-1-9.8l3.8-.5.4,2.6h.2c1.9-1.9,3.9-2.9,6.2-2.9,3.4,0,5.6,1,6.6,2.9h.2c2.2-1.9,4.3-2.9,6.4-2.9s4.2.5,5.5,1.6,1.8,2.9,1.8,5.6,0,.8,0,1.6,0,1.3,0,1.6c0,2.4,0,6,0,10.7h-3.9c.3-3.8.5-7.9.5-12.4Z"/>
    <path class="st2" d="M445.4,718.6c0,3.7-1.1,6.5-3.2,8.6s-4.6,3.1-7.4,3.1-5-.9-6.9-2.7-2.9-4.4-2.9-7.7,1.1-6.6,3.2-8.7,4.6-3.1,7.4-3.1,4.9.9,6.9,2.8,2.9,4.4,2.9,7.8ZM441.7,719.4c0-2.2-.6-4.2-1.7-6s-2.7-2.6-4.8-2.6-3.6.8-4.8,2.5-1.7,3.6-1.7,5.7.6,4.2,1.7,6,2.7,2.6,4.8,2.6,3.6-.8,4.7-2.5,1.7-3.6,1.7-5.7Z"/>
    <path class="st2" d="M474.3,709c0,.7-1.5,4.1-4.4,10.2s-4.4,9.5-4.4,10.3h-2.9c0-1-1.3-4.5-3.8-10.5s-3.8-9.3-3.8-9.9h4.2c0,.7.9,3.4,2.8,8.2,1.9,4.8,2.8,7.5,2.8,8.2h.2c0-.7.9-3.3,2.7-7.9,1.8-4.6,2.7-7.4,2.7-8.5h4Z"/>
    <path class="st2" d="M488.6,729.4h-3.9c.2-2.9.3-6.1.3-9.8s-.3-7.6-.8-10.4l4.3-.6c-.2,3-.3,6.7-.3,11s.1,6.7.3,9.8ZM489.5,702.6c0,.7-.2,1.4-.7,1.9s-1.1.8-2,.8-1.3-.2-1.7-.7-.6-1-.6-1.7.2-1.3.7-1.9,1.2-.8,2-.8,1.3.2,1.7.7.6,1,.6,1.6Z"/>
    <path class="st2" d="M527.9,717c0-2.3-.4-3.8-1.2-4.5s-2.1-1.1-3.9-1.1-3.1.8-4.7,2.3c0,1.7,0,3.5,0,5.1,0,2.4,0,6,.1,10.7h-3.9c.3-4.1.5-8.2.5-12.4s-.4-3.8-1.2-4.5-2.1-1.1-3.8-1.1-3.5.8-5,2.3c0,4.5,0,9.8,0,15.8h-3.9c.3-4.9.4-8.4.4-10.6,0-3.3-.3-6.6-1-9.8l3.8-.5.4,2.6h.2c1.9-1.9,3.9-2.9,6.2-2.9,3.4,0,5.6,1,6.6,2.9h.2c2.2-1.9,4.3-2.9,6.4-2.9s4.2.5,5.5,1.6c1.2,1.1,1.8,2.9,1.8,5.6s0,.8,0,1.6c0,.8,0,1.3,0,1.6,0,2.4,0,6,0,10.7h-3.9c.3-3.8.5-7.9.5-12.4Z"/>
    <path class="st2" d="M561.1,716.8c0,.6,0,1.4,0,2.5l-14.8.3c.1,2.1,1,3.8,2.4,5.3s3.4,2.1,5.9,2.1,4.2-.3,6.1-.8l-.4,3c-1.4.6-3.4.8-6.1.8s-6.6-1-8.5-3.1-2.9-4.5-2.9-7.4.9-5.8,2.7-8.1,4.2-3.4,7.2-3.4,4.9.8,6.3,2.4,2.2,3.7,2.2,6.3ZM557.6,716.9c0-4-1.7-6-5-6s-5.5,2.1-6.1,6.3l11.1-.2Z"/>
    <path class="st2" d="M590.9,729.4h-3.9c.3-3.8.5-7.9.5-12.3s-.4-3.7-1.3-4.5-2.2-1.2-3.8-1.2-3.9.7-5.6,2.2c0,4.9,0,10.2,0,15.9h-3.9c.2-4.9.4-8.4.4-10.6,0-3.4-.3-6.6-.9-9.8l3.8-.5.4,2.6h.2c2.1-1.9,4.4-2.9,6.8-2.9s4.2.5,5.5,1.6,2,2.9,2,5.6,0,.8,0,1.6,0,1.3,0,1.6c0,2.4,0,6,0,10.7Z"/>
    <path class="st2" d="M614.9,726.5l-.3,2.8c-1.1.4-2.2.6-3.2.6-2.6,0-4.3-.7-5.3-2s-1.4-3.7-1.4-7,0-5,0-8.6c-.8,0-2,0-3.5.1v-3.1c1.5,0,2.7.1,3.8.1,0-.9,0-2.9.2-6.1l3.4-.3c-.2,3-.4,5.2-.4,6.5,1.4,0,3.5,0,6.2-.2l-.2,3.2c-2.6,0-4.6-.1-6.2-.1,0,2.2,0,4.6,0,7.3s.3,4.9.9,5.9,1.8,1.4,3.5,1.4,1.4-.1,2.5-.4Z"/>
    <path class="st2" d="M645.2,718.6c0,3.7-1.1,6.5-3.2,8.6s-4.6,3.1-7.4,3.1-5-.9-6.9-2.7-2.9-4.4-2.9-7.7,1.1-6.6,3.2-8.7,4.6-3.1,7.4-3.1,4.9.9,6.9,2.8,2.9,4.4,2.9,7.8ZM641.4,719.4c0-2.2-.6-4.2-1.7-6s-2.7-2.6-4.8-2.6-3.6.8-4.8,2.5-1.7,3.6-1.7,5.7.6,4.2,1.7,6,2.7,2.6,4.8,2.6,3.6-.8,4.7-2.5,1.7-3.6,1.7-5.7Z"/>
    <path class="st2" d="M690.5,716.8c0,.6,0,1.4,0,2.5l-14.8.3c.1,2.1,1,3.8,2.4,5.3s3.4,2.1,5.9,2.1,4.2-.3,6.1-.8l-.4,3c-1.4.6-3.4.8-6.1.8s-6.6-1-8.5-3.1-2.9-4.5-2.9-7.4.9-5.8,2.7-8.1,4.2-3.4,7.2-3.4,4.9.8,6.3,2.4,2.2,3.7,2.2,6.3ZM686.9,716.9c0-4-1.7-6-5-6s-5.5,2.1-6.1,6.3l11.1-.2Z"/>
    <path class="st2" d="M737.7,718.4c0,3.1-.9,5.9-2.7,8.2-1.8,2.3-4.2,3.5-7.3,3.5s-4.4-.5-5.4-1.4h-.2l-.5.8h-3.2c.2-4.9.3-10.3.3-16s-.2-9.9-.7-14.2l4.3-.2c-.1,2.5-.2,6.4-.2,11.7h.2c1.4-1.6,3.6-2.4,6.7-2.4s4.8,1,6.4,3,2.4,4.4,2.4,7.2ZM733.9,718.9c0-2.2-.6-4-1.7-5.5-1.1-1.5-2.7-2.2-4.7-2.2s-4.4.8-5.5,2.3c0,5.1.1,9.2.3,12.4,1.2,1,2.7,1.5,4.5,1.5s4.1-.8,5.3-2.5c1.2-1.6,1.8-3.7,1.8-6Z"/>
    <path class="st2" d="M766.9,716.8c0,.6,0,1.4,0,2.5l-14.8.3c.1,2.1,1,3.8,2.4,5.3s3.4,2.1,5.9,2.1,4.2-.3,6.1-.8l-.4,3c-1.4.6-3.4.8-6.1.8s-6.6-1-8.5-3.1-2.9-4.5-2.9-7.4.9-5.8,2.7-8.1,4.2-3.4,7.2-3.4,4.9.8,6.3,2.4,2.2,3.7,2.2,6.3ZM763.3,716.9c0-4-1.7-6-5-6s-5.5,2.1-6.1,6.3l11.1-.2Z"/>
    <path class="st2" d="M782.6,729.4h-4.1c.3-4.7.4-10.1.4-16s-.2-10.5-.6-14.2l4.4-.2c-.3,3.9-.4,8.7-.4,14.4s.1,11.2.4,16Z"/>
    <path class="st2" d="M812.7,716.8c0,.6,0,1.4,0,2.5l-14.8.3c.1,2.1,1,3.8,2.4,5.3s3.4,2.1,5.9,2.1,4.2-.3,6.1-.8l-.4,3c-1.4.6-3.4.8-6.1.8s-6.6-1-8.5-3.1-2.9-4.5-2.9-7.4.9-5.8,2.7-8.1,4.2-3.4,7.2-3.4,4.9.8,6.3,2.4,2.2,3.7,2.2,6.3ZM809.1,716.9c0-4-1.7-6-5-6s-5.5,2.1-6.1,6.3l11.1-.2Z"/>
    <path class="st2" d="M839.4,726v3.5h-15.8l.2-3.3c.8-.7,2.7-3,5.8-6.8,3.4-4.1,5.1-6.5,5.1-7v-.2c-4.6,0-8.3,0-11,.3v-3.4h15l-.2,3.4c-1.2,1.3-3.1,3.6-5.7,6.8-3.2,4.1-4.8,6.4-4.8,6.9v.2c4.3,0,8.1-.1,11.3-.3Z"/>
    <path class="st2" d="M867.1,729.4h-3.4c-.2-.6-.3-1.2-.3-1.9h-.2c-1.8,1.6-4.2,2.4-7.2,2.4s-3.1-.5-4.3-1.5c-1.2-1-1.8-2.3-1.8-4.1s.9-4,2.8-5.3c1.9-1.3,5.3-2,10.4-2.1,0-.3,0-.7,0-1.2,0-1.8-.5-2.9-1.4-3.5-.9-.6-2.4-.9-4.3-.9s-4.5.3-6.6.8l.4-3c2.1-.6,4.6-.9,7.4-.9s4.5.5,5.9,1.6c1.4,1.1,2.1,2.8,2.1,5.4s0,1.9,0,3.7,0,2.9,0,3.5c0,2.6.2,4.9.6,7ZM863.3,725.3c0-2.2-.1-4.1-.1-5.9-2.7,0-4.7.2-6.1.6-2.4.7-3.5,2.1-3.5,4.1s1.4,2.9,4.1,2.9,4.2-.6,5.7-1.8Z"/>
  </g>
</svg>